<svg xmlns="http://www.w3.org/2000/svg" width="178" height="126" viewBox="0 0 178 126"><defs><linearGradient id="pink" x2=".3" y2="1"><stop stop-color="#fff0f6"/><stop offset=".4" stop-color="#ff8fbc"/><stop offset="1" stop-color="#d64783"/></linearGradient><linearGradient id="gold" x2="0" y2="1"><stop stop-color="#fff7ca"/><stop offset="1" stop-color="#dd9c39"/></linearGradient></defs><g stroke="#bf477d" stroke-width="2.5" stroke-linejoin="round"><path d="M78 56 37 95 32 72 11 77 48 41M100 56l41 39 5-23 21 5-37-36" fill="url(#pink)"/><path d="M82 42C59 16 16 5 10 27 3 51 12 71 29 71 49 72 68 60 83 56M96 42c23-26 66-37 72-15 7 24-2 44-19 44-20 1-39-11-54-15" fill="url(#pink)"/><path d="m29 34 48 14-47 8m119-22-48 14 47 8" fill="none" opacity=".3"/><path d="M89 39c-20-18-39 7 0 31 39-24 20-49 0-31Z" fill="url(#gold)" stroke="#d5933d"/><path d="M89 44c-13-12-27 4 0 21 27-17 13-33 0-21Z" fill="#ff80af" stroke="#fff2d6" stroke-width="2"/></g><path d="m31 23 19 7m77-7-15 5" stroke="#fff" stroke-width="5" stroke-linecap="round" opacity=".8"/></svg>
